<?xml version="1.0" encoding="UTF-8" standalone="no"?><!DOCTYPE svg PUBLIC "-//W3C//DTD SVG 1.1//EN" "http://www.w3.org/Graphics/SVG/1.1/DTD/svg11.dtd"><svg width="100%" height="100%" viewBox="0 0 600 600" version="1.1" xmlns="http://www.w3.org/2000/svg" xmlns:xlink="http://www.w3.org/1999/xlink" xml:space="preserve" xmlns:serif="http://www.serif.com/" style="fill-rule:evenodd;clip-rule:evenodd;stroke-miterlimit:10;"><rect id="Artboard1" x="0" y="0" width="600" height="600" style="fill:none;"/><clipPath id="_clip1"><rect id="Artboard11" serif:id="Artboard1" x="0" y="0" width="600" height="600"/></clipPath><g clip-path="url(#_clip1)"><g><path d="M518.028,300c0,120.413 -97.614,218.028 -218.028,218.028c-120.413,0 -218.028,-97.615 -218.028,-218.028c0,-120.414 97.615,-218.028 218.028,-218.028c120.414,0 218.028,97.614 218.028,218.028Z" style="fill:none;fill-rule:nonzero;stroke:#dd4b56;stroke-width:41.31px;"/><path d="M194.848,341.61c14.304,-21.66 28.603,-43.326 42.907,-64.992c7.288,-11.04 19.99,-36.427 37.054,-29.936c8.168,3.108 14.426,11.224 19.342,18.073c6.769,9.435 13.139,19.152 20.025,28.504c13.979,18.999 29.719,35.675 49.208,49.095c20.341,14.014 43.512,23.916 67.332,30.24c13.798,3.661 19.683,-17.707 5.891,-21.367c-21.843,-5.8 -42.586,-14.741 -61.3,-27.495c-19.688,-13.417 -34.843,-31.295 -48.451,-50.653c-12.486,-17.761 -24.802,-41.263 -47.091,-47.988c-23.431,-7.071 -41.413,11.049 -53.419,28.677c-17.234,25.305 -33.766,51.112 -50.632,76.66c-7.877,11.935 11.304,23.045 19.134,11.182" style="fill:#dd4b56;fill-rule:nonzero;"/></g></g></svg>