<svg width="22" height="21" viewBox="0 0 22 21" xmlns="http://www.w3.org/2000/svg">
<path d="M11 1.75C6.04873 1.75 2.03027 5.67 2.03027 10.5C2.03027 15.33 6.04873 19.25 11 19.25C15.9513 19.25 19.9698 15.33 19.9698 10.5C19.9698 5.67 15.9513 1.75 11 1.75ZM6.57794 15.995C6.96364 15.2075 9.31372 14.4375 11 14.4375C12.6863 14.4375 15.0454 15.2075 15.4221 15.995C14.2022 16.94 12.6684 17.5 11 17.5C9.33166 17.5 7.79783 16.94 6.57794 15.995ZM16.7048 14.7262C15.4221 13.2037 12.3096 12.6875 11 12.6875C9.69045 12.6875 6.57794 13.2037 5.29527 14.7262C4.38035 13.5537 3.82423 12.0925 3.82423 10.5C3.82423 6.64125 7.04437 3.5 11 3.5C14.9557 3.5 18.1758 6.64125 18.1758 10.5C18.1758 12.0925 17.6197 13.5537 16.7048 14.7262ZM11 5.25C9.2599 5.25 7.86062 6.615 7.86062 8.3125C7.86062 10.01 9.2599 11.375 11 11.375C12.7402 11.375 14.1395 10.01 14.1395 8.3125C14.1395 6.615 12.7402 5.25 11 5.25ZM11 9.625C10.2555 9.625 9.65457 9.03875 9.65457 8.3125C9.65457 7.58625 10.2555 7 11 7C11.7445 7 12.3455 7.58625 12.3455 8.3125C12.3455 9.03875 11.7445 9.625 11 9.625Z"/>
</svg>
