<?xml version="1.0" encoding="UTF-8"?>
<svg xmlns="http://www.w3.org/2000/svg" viewBox="0 0 32 48"><path d="M11 38v1c0 .6-.4 1-1 1H8c-.6 0-1-.4-1-1v-1c0-.6.4-1 1-1h2c.6 0 1 .4 1 1zm-1-9H8c-.6 0-1 .4-1 1v1c0 .6.4 1 1 1h2c.6 0 1-.4 1-1v-1c0-.6-.4-1-1-1zm6-11c1.1 0 2-.9 2-2s-.9-2-2-2-2 .9-2 2 .9 2 2 2zm7.5 19h-8c-.8 0-1.5.7-1.5 1.5s.7 1.5 1.5 1.5h8c.8 0 1.5-.7 1.5-1.5s-.7-1.5-1.5-1.5zM20 23.4c0-1.9-1.5-3.4-3.4-3.4h-1.2c-1.9 0-3.4 1.5-3.4 3.4V25h8v-1.6zM32 8.1v37.7c0 1.1-.9 2.1-2 2.2H2c-1.1 0-2-1-2-2.2V8.1C0 7 .9 6 2 6h5c0-1.1.9-2 2-2h3c0-2.2 1.8-4 4-4s4 1.8 4 4h3c1.1 0 2 .9 2 2h5c1.1 0 2 1 2 2.1zM15 5c0 .6.4 1 1 1s1-.4 1-1-.4-1-1-1-1 .4-1 1zm13 5h-3c0 1.1-.9 2-2 2H9c-1.1 0-2-.9-2-2H4v34h24V10zm-4.5 19h-8c-.8 0-1.5.7-1.5 1.5s.7 1.5 1.5 1.5h8c.8 0 1.5-.7 1.5-1.5s-.7-1.5-1.5-1.5z"/></svg>
