<svg width="22" height="20" viewBox="0 0 22 20" xmlns="http://www.w3.org/2000/svg">
<g clip-path="url(#clip0_905_900)">
<path d="M21.3125 7.91667C21.1302 7.91667 20.9553 7.98251 20.8264 8.09973C20.6974 8.21694 20.625 8.37591 20.625 8.54167V9.16667H18.733C18.5657 7.87073 18.0055 6.64255 17.1151 5.61917L18.4539 4.40208L18.9929 4.81708C19.1218 4.93433 19.2968 5.0002 19.4792 5.0002C19.6616 5.0002 19.8365 4.93433 19.9655 4.81708C20.0944 4.69984 20.1669 4.54081 20.1669 4.375C20.1669 4.20919 20.0944 4.05016 19.9655 3.93292L17.6738 1.84958C17.5448 1.73234 17.3699 1.66647 17.1875 1.66647C17.0051 1.66647 16.8302 1.73234 16.7012 1.84958C16.5722 1.96683 16.4998 2.12585 16.4998 2.29167C16.4998 2.45748 16.5722 2.6165 16.7012 2.73375L17.1577 3.22333L15.8189 4.44083C14.6932 3.63138 13.3422 3.12217 11.9167 2.97V1.25H12.6042C12.7865 1.25 12.9614 1.18415 13.0903 1.06694C13.2192 0.949731 13.2917 0.79076 13.2917 0.625C13.2917 0.45924 13.2192 0.300268 13.0903 0.183058C12.9614 0.065848 12.7865 0 12.6042 0L9.39583 0C9.2135 0 9.03863 0.065848 8.9097 0.183058C8.78077 0.300268 8.70833 0.45924 8.70833 0.625C8.70833 0.79076 8.78077 0.949731 8.9097 1.06694C9.03863 1.18415 9.2135 1.25 9.39583 1.25H10.0833V2.97C8.65782 3.12217 7.30683 3.63138 6.18108 4.44083L4.84229 3.22333L5.29879 2.73375C5.42776 2.6165 5.50022 2.45748 5.50022 2.29167C5.50022 2.12585 5.42776 1.96683 5.29879 1.84958C5.16982 1.73234 4.99489 1.66647 4.8125 1.66647C4.63011 1.66647 4.45518 1.73234 4.32621 1.84958L2.08771 3.93292C1.96241 4.05074 1.89303 4.20859 1.89451 4.37246C1.89599 4.53633 1.96822 4.69312 2.09563 4.80906C2.22303 4.92499 2.39543 4.9908 2.57569 4.9923C2.75596 4.9938 2.92965 4.93088 3.05938 4.81708L3.54613 4.40208L4.88446 5.61917C3.99419 6.6426 3.43421 7.87077 3.267 9.16667H1.375V8.54167C1.375 8.37591 1.30257 8.21694 1.17364 8.09973C1.0447 7.98251 0.869836 7.91667 0.6875 7.91667C0.505164 7.91667 0.330295 7.98251 0.201364 8.09973C0.0724328 8.21694 0 8.37591 0 8.54167L0 11.4583C0 11.6241 0.0724328 11.7831 0.201364 11.9003C0.330295 12.0175 0.505164 12.0833 0.6875 12.0833C0.869836 12.0833 1.0447 12.0175 1.17364 11.9003C1.30257 11.7831 1.375 11.6241 1.375 11.4583V10.8333H3.267C3.43434 12.1293 3.99448 13.3574 4.88492 14.3808L3.54613 15.5979L3.00713 15.1829C2.94326 15.1249 2.86745 15.0788 2.78401 15.0474C2.70057 15.016 2.61115 14.9998 2.52083 14.9998C2.43052 14.9998 2.34109 15.016 2.25765 15.0474C2.17422 15.0788 2.0984 15.1249 2.03454 15.1829C1.97068 15.241 1.92002 15.3099 1.88546 15.3857C1.8509 15.4616 1.83311 15.5429 1.83311 15.625C1.83311 15.7071 1.8509 15.7884 1.88546 15.8643C1.92002 15.9401 1.97068 16.009 2.03454 16.0671L4.32621 18.1504C4.39007 18.2085 4.46588 18.2545 4.54932 18.2859C4.63276 18.3174 4.72219 18.3335 4.8125 18.3335C4.90281 18.3335 4.99224 18.3174 5.07568 18.2859C5.15912 18.2545 5.23493 18.2085 5.29879 18.1504C5.36265 18.0924 5.41331 18.0234 5.44787 17.9476C5.48243 17.8717 5.50022 17.7904 5.50022 17.7083C5.50022 17.6262 5.48243 17.5449 5.44787 17.4691C5.41331 17.3932 5.36265 17.3243 5.29879 17.2662L4.84229 16.7767L6.18108 15.5592C7.30683 16.3686 8.65782 16.8778 10.0833 17.03V18.75H9.39583C9.2135 18.75 9.03863 18.8158 8.9097 18.9331C8.78077 19.0503 8.70833 19.2092 8.70833 19.375C8.70833 19.5408 8.78077 19.6997 8.9097 19.8169C9.03863 19.9342 9.2135 20 9.39583 20H12.6042C12.7865 20 12.9614 19.9342 13.0903 19.8169C13.2192 19.6997 13.2917 19.5408 13.2917 19.375C13.2917 19.2092 13.2192 19.0503 13.0903 18.9331C12.9614 18.8158 12.7865 18.75 12.6042 18.75H11.9167V17.03C13.3422 16.8778 14.6932 16.3686 15.8189 15.5592L17.1577 16.7767L16.7012 17.2662C16.6373 17.3243 16.5867 17.3932 16.5521 17.4691C16.5176 17.5449 16.4998 17.6262 16.4998 17.7083C16.4998 17.7904 16.5176 17.8717 16.5521 17.9476C16.5867 18.0234 16.6373 18.0924 16.7012 18.1504C16.7651 18.2085 16.8409 18.2545 16.9243 18.2859C17.0078 18.3174 17.0972 18.3335 17.1875 18.3335C17.2778 18.3335 17.3672 18.3174 17.4507 18.2859C17.5341 18.2545 17.6099 18.2085 17.6738 18.1504L19.9655 16.0671C20.0293 16.009 20.08 15.9401 20.1145 15.8643C20.1491 15.7884 20.1669 15.7071 20.1669 15.625C20.1669 15.5429 20.1491 15.4616 20.1145 15.3857C20.08 15.3099 20.0293 15.241 19.9655 15.1829C19.9016 15.1249 19.8258 15.0788 19.7423 15.0474C19.6589 15.016 19.5695 14.9998 19.4792 14.9998C19.3889 14.9998 19.2994 15.016 19.216 15.0474C19.1326 15.0788 19.0567 15.1249 18.9929 15.1829L18.4539 15.5979L17.1155 14.3808C18.0058 13.3574 18.5658 12.1292 18.733 10.8333H20.625V11.4583C20.625 11.6241 20.6974 11.7831 20.8264 11.9003C20.9553 12.0175 21.1302 12.0833 21.3125 12.0833C21.4948 12.0833 21.6697 12.0175 21.7986 11.9003C21.9276 11.7831 22 11.6241 22 11.4583V8.54167C22 8.37591 21.9276 8.21694 21.7986 8.09973C21.6697 7.98251 21.4948 7.91667 21.3125 7.91667ZM8.47917 8.33333C8.16189 8.33333 7.85174 8.2478 7.58794 8.08756C7.32414 7.92732 7.11853 7.69956 6.99711 7.43308C6.87569 7.1666 6.84393 6.87338 6.90582 6.59049C6.96772 6.3076 7.1205 6.04775 7.34485 5.8438C7.5692 5.63985 7.85503 5.50096 8.16621 5.44469C8.47739 5.38842 8.79993 5.4173 9.09305 5.52768C9.38618 5.63805 9.63671 5.82497 9.81298 6.06479C9.98925 6.30461 10.0833 6.58657 10.0833 6.875C10.0833 7.26177 9.91432 7.63271 9.61348 7.9062C9.31264 8.17969 8.90462 8.33333 8.47917 8.33333ZM13.75 13.75C13.5687 13.75 13.3915 13.7011 13.2407 13.6096C13.09 13.518 12.9725 13.3878 12.9031 13.2356C12.8337 13.0833 12.8156 12.9157 12.8509 12.7541C12.8863 12.5924 12.9736 12.444 13.1018 12.3274C13.23 12.2109 13.3934 12.1315 13.5712 12.0993C13.749 12.0672 13.9333 12.0837 14.1008 12.1468C14.2683 12.2098 14.4115 12.3166 14.5122 12.4537C14.6129 12.5907 14.6667 12.7518 14.6667 12.9167C14.6667 13.1377 14.5701 13.3496 14.3982 13.5059C14.2263 13.6622 13.9931 13.75 13.75 13.75Z"/>
</g>
<defs>
<clipPath id="clip0_905_900">
<rect width="22" height="20"/>
</clipPath>
</defs>
</svg>
