<svg width="48" height="49" viewBox="0 0 48 49" xmlns="http://www.w3.org/2000/svg">
<g clip-path="url(#clip0_13_2865)">
<path d="M43.9999 48.5C43.4746 48.5006 42.9544 48.3975 42.4691 48.1965C41.9838 47.9956 41.543 47.7008 41.1719 47.329L22.1719 27.329C21.8003 26.9575 21.5055 26.5165 21.3044 26.0311C21.1033 25.5457 20.9998 25.0254 20.9998 24.5C20.9998 23.9746 21.1033 23.4543 21.3044 22.9689C21.5055 22.4835 21.8003 22.0425 22.1719 21.671L41.1719 1.671C41.9221 0.920836 42.9395 0.499397 44.0004 0.499397C45.0613 0.499397 46.0787 0.920836 46.8289 1.671C47.5791 2.42117 48.0005 3.43861 48.0005 4.4995C48.0005 5.56039 47.5791 6.57784 46.8289 7.328L30.9999 24.5L46.8289 41.671C47.3885 42.2304 47.7697 42.9432 47.9241 43.7193C48.0786 44.4954 47.9993 45.2998 47.6965 46.0309C47.3937 46.7619 46.8808 47.3867 46.2228 47.8262C45.5648 48.2658 44.7912 48.5002 43.9999 48.5ZM25.8299 47.329C26.2015 46.9575 26.4963 46.5165 26.6974 46.0311C26.8985 45.5457 27.002 45.0254 27.002 44.5C27.002 43.9746 26.8985 43.4543 26.6974 42.9689C26.4963 42.4835 26.2015 42.0425 25.8299 41.671L9.9999 24.5L25.8289 7.328C26.5791 6.57784 27.0005 5.56039 27.0005 4.4995C27.0005 3.43861 26.5791 2.42117 25.8289 1.671C25.0787 0.920835 24.0613 0.499397 23.0004 0.499397C21.9395 0.499397 20.9221 0.920835 20.1719 1.671L1.1719 21.671C0.800296 22.0425 0.505513 22.4835 0.304393 22.9689C0.103273 23.4543 -0.000244141 23.9746 -0.000244141 24.5C-0.000244141 25.0254 0.103273 25.5457 0.304393 26.0311C0.505513 26.5165 0.800296 26.9575 1.1719 27.329L20.1719 47.329C20.5433 47.7005 20.9843 47.9951 21.4696 48.1961C21.9549 48.3972 22.4751 48.5006 23.0004 48.5006C23.5257 48.5006 24.0459 48.3972 24.5312 48.1961C25.0165 47.9951 25.4585 47.7005 25.8299 47.329Z"/>
</g>
<defs>
<clipPath id="clip0_13_2865">
<rect width="48" height="48" />
</clipPath>
</defs>
</svg>