<?xml version="1.0" encoding="UTF-8"?>
<svg xmlns="http://www.w3.org/2000/svg" viewBox="0 0 48 43"><path  d="M47 0H1a1.003 1.003 0 0 0-1 1v31a1.003 1.003 0 0 0 1 1h18v6h-9a2 2 0 0 0-2 2v1.5a.5.5 0 0 0 .5.5h31a.5.5 0 0 0 .5-.5V41a2 2 0 0 0-2-2h-9v-6h18a1.003 1.003 0 0 0 1-1V1a1.003 1.003 0 0 0-1-1zM25.9 31.5a1.973 1.973 0 0 1-3.8 0 1.88 1.88 0 0 1-.07-.53 1.851 1.851 0 0 1 .26-.97 1.962 1.962 0 0 1 3.42 0 1.851 1.851 0 0 1 .26.97 1.88 1.88 0 0 1-.07.53zM4 27V4h40v23z" data-name="Layer 2"/></svg>
