<?xml version="1.0" encoding="UTF-8"?>
<svg xmlns="http://www.w3.org/2000/svg" viewBox="0 0 48 32"><g  data-name="Layer 2"><path d="M13 20.97a10.938 10.938 0 0 1 4.13-8.46 7.565 7.565 0 0 0-4.5-1.51A7.69 7.69 0 0 0 5 18.58V22h8zM35 20.97V22h8v-3.42A7.69 7.69 0 0 0 35.37 11a7.565 7.565 0 0 0-4.5 1.51A10.938 10.938 0 0 1 35 20.97zM15 22v3h18v-4.03a9 9 0 0 0-18 0z" /><circle cx="24" cy="5" r="5" /><circle cx="13" cy="5" r="4" /><circle cx="35" cy="5" r="4" /><path d="M46.5 29h-45a1.5 1.5 0 0 0 0 3h45a1.5 1.5 0 0 0 0-3z"/></g></svg>
