<svg width="22" height="20" viewBox="0 0 22 20" xmlns="http://www.w3.org/2000/svg">
<g clip-path="url(#clip0_905_904)">
<path d="M20.0796 7.11823C19.7612 5.14145 18.6711 3.33477 17.0085 2.02822C15.346 0.721674 13.2219 0.00245889 11.0242 0.00195339C8.82656 0.0014479 6.70204 0.719686 5.03875 2.02547C3.37546 3.33125 2.2844 5.13743 1.96488 7.11406C1.42003 7.18507 0.921551 7.43212 0.560712 7.80997C0.199872 8.18782 0.000819342 8.67119 4.57461e-08 9.17156V12.9124C-6.01511e-05 13.1866 0.0592897 13.4581 0.17466 13.7114C0.290031 13.9647 0.459162 14.1949 0.672394 14.3888C0.885627 14.5826 1.13878 14.7364 1.41741 14.8414C1.69603 14.9463 1.99466 15.0003 2.29625 15.0003H4.12317C4.36677 15.0003 4.60039 14.9123 4.77264 14.7557C4.9449 14.5992 5.04167 14.3868 5.04167 14.1653V7.91865C5.04167 7.69719 4.9449 7.48481 4.77264 7.32821C4.60039 7.17162 4.36677 7.08365 4.12317 7.08365H3.8225C4.14148 5.56014 5.03509 4.18552 6.34932 3.19672C7.66355 2.20792 9.31606 1.66689 11.022 1.66689C12.7279 1.66689 14.3804 2.20792 15.6947 3.19672C17.0089 4.18552 17.9025 5.56014 18.2215 7.08365H17.8768C17.6332 7.08365 17.3996 7.17162 17.2274 7.32821C17.0551 7.48481 16.9583 7.69719 16.9583 7.91865V14.1653C16.9583 14.3868 17.0551 14.5992 17.2274 14.7557C17.3996 14.9123 17.6332 15.0003 17.8768 15.0003H18.3113C18.1897 15.6964 17.7992 16.3303 17.21 16.7885C16.6208 17.2466 15.8714 17.4989 15.0961 17.5003H13.4956C13.2938 17.1826 12.9824 16.9342 12.6095 16.7938C12.2366 16.6534 11.8232 16.6288 11.4334 16.7238C11.0436 16.8187 10.6991 17.028 10.4534 17.319C10.2077 17.6101 10.0746 17.9668 10.0746 18.3336C10.0746 18.7005 10.2077 19.0572 10.4534 19.3482C10.6991 19.6393 11.0436 19.8486 11.4334 19.9435C11.8232 20.0385 12.2366 20.0138 12.6095 19.8734C12.9824 19.733 13.2938 19.4847 13.4956 19.167H15.0961C16.366 19.1654 17.5894 18.733 18.527 17.9545C19.4646 17.176 20.0488 16.1073 20.1653 14.9578C20.6833 14.861 21.1487 14.6047 21.483 14.2322C21.8172 13.8596 21.9999 13.3936 22 12.9128V9.17198C21.9994 8.67838 21.8059 8.20102 21.4542 7.82497C21.1025 7.44892 20.6154 7.19819 20.0796 7.11823Z"/>
</g>
<defs>
<clipPath id="clip0_905_904">
<rect width="22" height="20"/>
</clipPath>
</defs>
</svg>
