<?xml version="1.0" encoding="UTF-8"?>
<svg xmlns="http://www.w3.org/2000/svg" viewBox="0 0 48 48"><path d="M45 21h-1.25a19.867 19.867 0 0 0-3.668-8.84l.889-.888a3 3 0 1 0-4.242-4.243l-.89.889A19.868 19.868 0 0 0 27 4.25V3a3 3 0 0 0-6 0v1.25a19.868 19.868 0 0 0-8.84 3.668l-.888-.889a3 3 0 1 0-4.243 4.243l.889.889A19.867 19.867 0 0 0 4.25 21H3a3 3 0 0 0 0 6h1.25a19.867 19.867 0 0 0 3.668 8.84l-.889.888a3 3 0 0 0 4.242 4.243l.89-.889A19.868 19.868 0 0 0 21 43.75V45a3 3 0 0 0 6 0v-1.25a19.868 19.868 0 0 0 8.84-3.668l.888.889a3 3 0 1 0 4.243-4.243l-.889-.889A19.867 19.867 0 0 0 43.75 27H45a3 3 0 0 0 0-6zM24 38a14 14 0 1 1 14-14 14.016 14.016 0 0 1-14 14z" data-name="Layer 2" /></svg>
