<svg width="22" height="20" viewBox="0 0 22 20" xmlns="http://www.w3.org/2000/svg">
<g clip-path="url(#clip0_905_896)">
<path d="M21.5096 6.66667H20.625V5.44167C20.6254 5.38357 20.613 5.32599 20.5888 5.27226C20.5645 5.21852 20.5287 5.1697 20.4835 5.12862C20.4383 5.08754 20.3846 5.05502 20.3255 5.03294C20.2664 5.01087 20.2031 4.99967 20.1392 5H19.25V0.625C19.25 0.45924 19.1776 0.300268 19.0486 0.183058C18.9197 0.065848 18.7448 0 18.5625 0C18.3802 0 18.2053 0.065848 18.0764 0.183058C17.9474 0.300268 17.875 0.45924 17.875 0.625V5H16.9858C16.9219 4.99967 16.8586 5.01087 16.7995 5.03294C16.7404 5.05502 16.6867 5.08754 16.6415 5.12862C16.5963 5.1697 16.5605 5.21852 16.5362 5.27226C16.512 5.32599 16.4996 5.38357 16.5 5.44167V6.66667H15.6154C15.4854 6.66678 15.3607 6.71378 15.2688 6.79737C15.1768 6.88096 15.1251 6.99429 15.125 7.1125V18.75H13.2917V1.25C13.2913 1.13959 13.2429 1.03381 13.157 0.955736C13.0711 0.877668 12.9548 0.833663 12.8333 0.833333H7.33333C7.21189 0.833663 7.09552 0.877668 7.00964 0.955736C6.92377 1.03381 6.87536 1.13959 6.875 1.25V18.75H3.66667V16.1617C4.25205 16.0108 4.75765 15.6726 5.09019 15.2094C5.42273 14.7462 5.55976 14.1892 5.476 13.6414C5.39223 13.0935 5.09332 12.5917 4.63442 12.2285C4.17552 11.8653 3.58761 11.6652 2.97917 11.6652C2.37072 11.6652 1.78281 11.8653 1.32391 12.2285C0.865016 12.5917 0.566105 13.0935 0.482338 13.6414C0.398571 14.1892 0.5356 14.7462 0.868139 15.2094C1.20068 15.6726 1.70629 16.0108 2.29167 16.1617V18.75H0V20H22V7.1125C21.9999 6.99429 21.9482 6.88096 21.8562 6.79737C21.7643 6.71378 21.6396 6.66678 21.5096 6.66667ZM19.25 13.125C19.2497 13.0976 19.2554 13.0703 19.2668 13.0449C19.2782 13.0195 19.2951 12.9965 19.3164 12.9771C19.3378 12.9577 19.3632 12.9423 19.3911 12.932C19.419 12.9216 19.449 12.9164 19.4792 12.9167H20.3958C20.426 12.9164 20.456 12.9216 20.4839 12.932C20.5118 12.9423 20.5372 12.9577 20.5586 12.9771C20.5799 12.9965 20.5968 13.0195 20.6082 13.0449C20.6196 13.0703 20.6253 13.0976 20.625 13.125V13.9583C20.6253 13.9858 20.6196 14.013 20.6082 14.0384C20.5968 14.0638 20.5799 14.0869 20.5586 14.1063C20.5372 14.1257 20.5118 14.141 20.4839 14.1514C20.456 14.1617 20.426 14.1669 20.3958 14.1667H19.4792C19.449 14.1669 19.419 14.1617 19.3911 14.1514C19.3632 14.141 19.3378 14.1257 19.3164 14.1063C19.2951 14.0869 19.2782 14.0638 19.2668 14.0384C19.2554 14.013 19.2497 13.9858 19.25 13.9583V13.125ZM20.3958 11.6667H19.4792C19.449 11.6669 19.419 11.6617 19.3911 11.6514C19.3632 11.641 19.3378 11.6257 19.3164 11.6063C19.2951 11.5869 19.2782 11.5638 19.2668 11.5384C19.2554 11.513 19.2497 11.4858 19.25 11.4583V10.625C19.2497 10.5976 19.2554 10.5703 19.2668 10.5449C19.2782 10.5195 19.2951 10.4965 19.3164 10.4771C19.3378 10.4577 19.3632 10.4423 19.3911 10.432C19.419 10.4216 19.449 10.4164 19.4792 10.4167H20.3958C20.426 10.4164 20.456 10.4216 20.4839 10.432C20.5118 10.4423 20.5372 10.4577 20.5586 10.4771C20.5799 10.4965 20.5968 10.5195 20.6082 10.5449C20.6196 10.5703 20.6253 10.5976 20.625 10.625V11.4583C20.6253 11.4858 20.6196 11.513 20.6082 11.5384C20.5968 11.5638 20.5799 11.5869 20.5586 11.6063C20.5372 11.6257 20.5118 11.641 20.4839 11.6514C20.456 11.6617 20.426 11.6669 20.3958 11.6667ZM20.3958 9.16667H19.4792C19.449 9.16695 19.419 9.16175 19.3911 9.15138C19.3632 9.141 19.3378 9.12567 19.3164 9.10627C19.2951 9.08687 19.2782 9.06379 19.2668 9.03839C19.2554 9.01298 19.2497 8.98577 19.25 8.95833V8.125C19.2497 8.09756 19.2554 8.07035 19.2668 8.04495C19.2782 8.01954 19.2951 7.99647 19.3164 7.97707C19.3378 7.95766 19.3632 7.94233 19.3911 7.93196C19.419 7.92159 19.449 7.91639 19.4792 7.91667H20.3958C20.426 7.91639 20.456 7.92159 20.4839 7.93196C20.5118 7.94233 20.5372 7.95766 20.5586 7.97707C20.5799 7.99647 20.5968 8.01954 20.6082 8.04495C20.6196 8.07035 20.6253 8.09756 20.625 8.125V8.95833C20.6253 8.98577 20.6196 9.01298 20.6082 9.03839C20.5968 9.06379 20.5799 9.08687 20.5586 9.10627C20.5372 9.12567 20.5118 9.141 20.4839 9.15138C20.456 9.16175 20.426 9.16695 20.3958 9.16667ZM16.5 8.125C16.4997 8.09756 16.5054 8.07035 16.5168 8.04495C16.5282 8.01954 16.5451 7.99647 16.5664 7.97707C16.5878 7.95766 16.6132 7.94233 16.6411 7.93196C16.669 7.92159 16.699 7.91639 16.7292 7.91667H17.6458C17.676 7.91639 17.706 7.92159 17.7339 7.93196C17.7618 7.94233 17.7872 7.95766 17.8086 7.97707C17.8299 7.99647 17.8468 8.01954 17.8582 8.04495C17.8696 8.07035 17.8753 8.09756 17.875 8.125V8.95833C17.8753 8.98577 17.8696 9.01298 17.8582 9.03839C17.8468 9.06379 17.8299 9.08687 17.8086 9.10627C17.7872 9.12567 17.7618 9.141 17.7339 9.15138C17.706 9.16175 17.676 9.16695 17.6458 9.16667H16.7292C16.699 9.16695 16.669 9.16175 16.6411 9.15138C16.6132 9.141 16.5878 9.12567 16.5664 9.10627C16.5451 9.08687 16.5282 9.06379 16.5168 9.03839C16.5054 9.01298 16.4997 8.98577 16.5 8.95833V8.125ZM16.5 10.625C16.4997 10.5976 16.5054 10.5703 16.5168 10.5449C16.5282 10.5195 16.5451 10.4965 16.5664 10.4771C16.5878 10.4577 16.6132 10.4423 16.6411 10.432C16.669 10.4216 16.699 10.4164 16.7292 10.4167H17.6458C17.676 10.4164 17.706 10.4216 17.7339 10.432C17.7618 10.4423 17.7872 10.4577 17.8086 10.4771C17.8299 10.4965 17.8468 10.5195 17.8582 10.5449C17.8696 10.5703 17.8753 10.5976 17.875 10.625V11.4583C17.8753 11.4858 17.8696 11.513 17.8582 11.5384C17.8468 11.5638 17.8299 11.5869 17.8086 11.6063C17.7872 11.6257 17.7618 11.641 17.7339 11.6514C17.706 11.6617 17.676 11.6669 17.6458 11.6667H16.7292C16.699 11.6669 16.669 11.6617 16.6411 11.6514C16.6132 11.641 16.5878 11.6257 16.5664 11.6063C16.5451 11.5869 16.5282 11.5638 16.5168 11.5384C16.5054 11.513 16.4997 11.4858 16.5 11.4583V10.625ZM16.5 13.125C16.4997 13.0976 16.5054 13.0703 16.5168 13.0449C16.5282 13.0195 16.5451 12.9965 16.5664 12.9771C16.5878 12.9577 16.6132 12.9423 16.6411 12.932C16.669 12.9216 16.699 12.9164 16.7292 12.9167H17.6458C17.676 12.9164 17.706 12.9216 17.7339 12.932C17.7618 12.9423 17.7872 12.9577 17.8086 12.9771C17.8299 12.9965 17.8468 13.0195 17.8582 13.0449C17.8696 13.0703 17.8753 13.0976 17.875 13.125V13.9583C17.8753 13.9858 17.8696 14.013 17.8582 14.0384C17.8468 14.0638 17.8299 14.0869 17.8086 14.1063C17.7872 14.1257 17.7618 14.141 17.7339 14.1514C17.706 14.1617 17.676 14.1669 17.6458 14.1667H16.7292C16.699 14.1669 16.669 14.1617 16.6411 14.1514C16.6132 14.141 16.5878 14.1257 16.5664 14.1063C16.5451 14.0869 16.5282 14.0638 16.5168 14.0384C16.5054 14.013 16.4997 13.9858 16.5 13.9583V13.125ZM8.70833 3.33333C8.7087 3.22293 8.7571 3.11714 8.84298 3.03907C8.92885 2.961 9.04522 2.917 9.16667 2.91667H11C11.1214 2.917 11.2378 2.961 11.3237 3.03907C11.4096 3.11714 11.458 3.22293 11.4583 3.33333V3.75C11.458 3.86041 11.4096 3.96619 11.3237 4.04426C11.2378 4.12233 11.1214 4.16634 11 4.16667H9.16667C9.04522 4.16634 8.92885 4.12233 8.84298 4.04426C8.7571 3.96619 8.7087 3.86041 8.70833 3.75V3.33333ZM8.70833 6.66667C8.7087 6.55626 8.7571 6.45047 8.84298 6.3724C8.92885 6.29433 9.04522 6.25033 9.16667 6.25H11C11.1214 6.25033 11.2378 6.29433 11.3237 6.3724C11.4096 6.45047 11.458 6.55626 11.4583 6.66667V7.08333C11.458 7.19374 11.4096 7.29953 11.3237 7.3776C11.2378 7.45567 11.1214 7.49967 11 7.5H9.16667C9.04522 7.49967 8.92885 7.45567 8.84298 7.3776C8.7571 7.29953 8.7087 7.19374 8.70833 7.08333V6.66667ZM8.70833 10C8.7087 9.88959 8.7571 9.78381 8.84298 9.70574C8.92885 9.62767 9.04522 9.58366 9.16667 9.58333H11C11.1214 9.58366 11.2378 9.62767 11.3237 9.70574C11.4096 9.78381 11.458 9.88959 11.4583 10V10.4167C11.458 10.5271 11.4096 10.6329 11.3237 10.7109C11.2378 10.789 11.1214 10.833 11 10.8333H9.16667C9.04522 10.833 8.92885 10.789 8.84298 10.7109C8.7571 10.6329 8.7087 10.5271 8.70833 10.4167V10ZM8.70833 18.75V16.6667C8.7087 16.5563 8.7571 16.4505 8.84298 16.3724C8.92885 16.2943 9.04522 16.2503 9.16667 16.25H11C11.1214 16.2503 11.2378 16.2943 11.3237 16.3724C11.4096 16.4505 11.458 16.5563 11.4583 16.6667V18.75H8.70833ZM19.25 18.75V16.6667C19.2504 16.5563 19.2988 16.4505 19.3846 16.3724C19.4705 16.2943 19.5869 16.2503 19.7083 16.25H20.1667C20.2881 16.2503 20.4045 16.2943 20.4904 16.3724C20.5762 16.4505 20.6246 16.5563 20.625 16.6667V18.75H19.25Z"/>
</g>
<defs>
<clipPath id="clip0_905_896">
<rect width="22" height="20"/>
</clipPath>
</defs>
</svg>
