<svg xmlns="http://www.w3.org/2000/svg" viewBox="0 0 382.02 133.27"><defs><style>.cls-1{fill:#F5333F;}</style></defs><title>Nyss logo</title><g id="Layer_2" data-name="Layer 2"><g id="Layer_1-2" data-name="Layer 1"><path class="cls-1" d="M102.19,125.11H71.28V50.38c0-6.92,0-19.8-15.65-19.8-15.42,0-23.24,10.85-23.24,32.26v62.27H.48V38.43c0-9,0-17.45-.21-25.5L0,2.45H30.31l.47,3.66Q41.47,0,56.38,0C69.25,0,80.3,4,88.32,11.49c9.2,8.62,13.87,21.12,13.87,37.16Z"/><path class="cls-1" d="M126.82,127.49a60.58,60.58,0,0,1-8.1-.52l-9-1.12V97.79l11.66,1.54a39.57,39.57,0,0,0,5.31.35c3.57,0,4.77,0,8.62-10.11L103.19,2.48h30.17l2.42,6.81c6,16.9,10.71,30,14.24,39.76,3.44-9.92,7.91-22.78,13.79-39.69l2.39-6.88h29.63L163.07,94c-4.71,13.06-8.67,20.39-13.66,25.32C142.12,126.56,133.51,127.49,126.82,127.49Z"/><path class="cls-1" d="M237.71,125.5c-26.58,0-44.69-14.43-48.45-38.59l-1.79-11.54h29.64l1.95,7.47c2.43,9.28,8.24,13.42,18.85,13.42,15.11,0,15.11-6.4,15.11-9.48,0-4.4-.92-5.21-1.81-6-2.6-2.27-8.61-4.56-17.85-6.79-14.63-3.51-24-7.63-30.26-13.33-6.55-5.94-9.74-13.7-9.74-23.71A34.57,34.57,0,0,1,204.7,11C212.45,4,223.45.25,236.51.25c30.2,0,43.16,19.93,45.08,37l1.25,6.86-30.08.67-.93-4.31c-1.56-7.29-6.85-11-15.73-11-12.49,0-12.49,4.85-12.49,6.67,0,2.29.34,2.56,1.09,3.15,2.36,1.86,7.73,3.81,16,5.81,30.53,7.36,43,19.2,43,40.85C283.66,109.25,264.77,125.5,237.71,125.5Z"/><path class="cls-1" d="M336.06,125.5c-26.57,0-44.68-14.43-48.44-38.59l-1.8-11.54h29.64l2,7.47c2.43,9.28,8.24,13.42,18.84,13.42,15.11,0,15.11-6.4,15.11-9.48,0-4.4-.92-5.21-1.81-6C347,78.52,341,76.23,331.71,74c-14.63-3.51-24-7.63-30.26-13.33C294.9,54.73,291.72,47,291.72,37A34.53,34.53,0,0,1,303.06,11C310.81,4,321.8.25,334.86.25c30.2,0,43.16,19.93,45.09,37l1.25,6.86-30.09.67-.92-4.31c-1.56-7.29-6.86-11-15.73-11-12.5,0-12.5,4.85-12.5,6.67,0,2.29.34,2.56,1.09,3.15,2.36,1.86,7.73,3.81,16,5.81,30.54,7.36,43,19.2,43,40.85C382,109.25,363.12,125.5,336.06,125.5Z"/><path class="cls-1" d="M157.84,126.19q4.84-7.34,9.68-14.67c1.65-2.49,4.51-8.22,8.36-6.75,1.85.7,3.26,2.53,4.37,4.08,1.53,2.12,3,4.32,4.52,6.43a46.71,46.71,0,0,0,11.1,11.08,49,49,0,0,0,15.2,6.82c3.11.82,4.44-4,1.32-4.82a44.78,44.78,0,0,1-13.83-6.21,43.71,43.71,0,0,1-10.93-11.43c-2.82-4-5.6-9.31-10.63-10.82-5.28-1.6-9.34,2.49-12.05,6.47-3.89,5.71-7.62,11.53-11.43,17.29C151.75,126.36,156.07,128.87,157.84,126.19Z"/></g></g></svg>