<svg xmlns="http://www.w3.org/2000/svg" viewBox="0 0 231 50"><path fill="#ed1c24" d="M214.9 15.8V0h-16.1v15.8h-16.1v15.8h16.1v15.8h16.1V31.6H231V15.8z"/><path d="M10.5 20.7c-.2-1.6-1.3-2.2-2.6-2.2-2.6 0-3.5 2.4-3.5 5.3 0 1 0 4.9 3.4 4.9 2.3 0 2.6-1.7 2.6-2.3h4.5c0 4.9-5.1 5.4-7.1 5.4-1.5 0-4.2-.3-6-2.1-1.7-1.8-2-4.4-2-6 0-2.2.5-4.3 2-6 1.6-1.8 3.7-2.3 6-2.3 2.6 0 4.5.6 5.7 1.9 1.3 1.4 1.3 2.8 1.3 3.4h-4.3M17.5 15.8h7.3c2.8 0 3.9.2 4.9 1.1.5.5 1.1 1.4 1.1 3.1 0 1.7-.7 2.5-1.4 2.9-1 .6-2 .7-2.4.8v.1c3.1.1 3.2 1.4 3.6 3.9.2 1.1.4 2.8.7 3.9h-4.7c-.3-1-.4-2.2-.5-3.6-.2-1.9-.3-2.6-2.2-2.6h-1.8v6.2h-4.4V15.8m4.2 6.7h1.6c1 0 1.4 0 1.8-.1 1-.3 1.2-1.3 1.2-1.8 0-1.9-1.7-1.9-3-1.9h-1.6v3.8zM34.9 17.5c2-2 5-2.2 6.2-2.2 6.3 0 8 4.5 8 8.4 0 6.3-4.5 8.2-8.2 8.2-4.2 0-8.1-2.3-8.1-8.2-.1-1 .1-4.2 2.1-6.2m5.9 11.2c3.1 0 3.7-2.9 3.7-5.1 0-2.2-.5-3.3-1-4-.6-.9-1.7-1.1-2.6-1.1-2.9 0-3.7 2.5-3.7 5.2 0 2.5.7 5 3.6 5M51.3 15.8h4.5v15.8h-4.5zM62.6 31.5h-5.1l6-8.2-5.6-7.5h5.7l3 4.9 3.2-4.9h5.1l-5.7 7.4 5.9 8.3h-5.6l-3.4-5.6zM75.2 22.7h6.2v2.6h-6.2zM84.2 15.8h7.3c2.8 0 3.9.2 4.9 1.1.5.5 1.1 1.4 1.1 3.1 0 1.7-.7 2.5-1.4 2.9-1 .6-2 .7-2.4.8v.1c3.1.1 3.2 1.4 3.6 3.9.2 1.1.4 2.8.7 3.9h-4.7c-.3-1-.4-2.2-.5-3.6-.2-1.9-.3-2.6-2.2-2.6h-1.8v6.2h-4.4V15.8m4.2 6.7h1.6c1 0 1.4 0 1.8-.1 1-.3 1.2-1.3 1.2-1.8 0-1.9-1.7-1.9-3-1.9h-1.6v3.8zM101.6 17.5c2-2 5-2.2 6.2-2.2 6.3 0 8 4.5 8 8.4 0 6.3-4.5 8.2-8.2 8.2-4.2 0-8.1-2.3-8.1-8.2 0-1 .1-4.2 2.1-6.2m6 11.2c3.1 0 3.6-2.9 3.6-5.1 0-2.2-.5-3.3-1-4-.6-.9-1.7-1.1-2.6-1.1-2.9 0-3.7 2.5-3.7 5.2.1 2.5.8 5 3.7 5M122.8 15.8v9.4c0 .9.1 1.7.5 2.4.6.9 1.6 1.3 2.7 1.3 2.8 0 3.1-2.3 3.1-3.8v-9.2h4.3V25c0 1.7-.2 3.6-1.2 4.8-1.5 1.9-4.3 2.3-6.3 2.3-7.5 0-7.5-4.6-7.5-7.2v-9h4.4M147.3 20.5c-.2-1.6-1.5-2.1-2.7-2.1-3 0-4.1 2.6-4.1 5.3 0 3.7 2 5.2 4.7 5.2.8 0 1.6-.1 2.4-.3v-3.1h-3.3v-3h7.4V31c-2.3.5-4.6.9-7 .9-1.7 0-4.1-.3-5.9-1.6-2-1.5-2.9-4-2.9-6.5 0-1.9.6-4.5 2.4-6.3 1.9-1.8 4.6-2.1 6.5-2.1 2.5 0 4.5.5 5.8 1.8 1.1 1.2 1.2 2.5 1.2 3.3h-4.5M154.7 15.8h11.8v3H159v3.3h7.1v3H159v3.4h7.7v3h-12zM90.3 36.1h1.4v9.6c0 .2 0 .8.1 1.2h-1.4v-1.2c-.1.2-.3.5-.7.8-.6.4-1.3.6-1.9.6-1 0-3.2-.5-3.2-3.8 0-2.9 1.6-4.1 3.4-4.1 1.6 0 2.2 1 2.3 1.3v-4.4m-.5 4.9c-.3-.4-.9-.8-1.7-.8-2.1 0-2.1 2.5-2.1 3 0 1.3.3 2.9 2.1 2.9 2.2 0 2.2-2.4 2.2-3 .1-1.1-.2-1.7-.5-2.1M95.2 43.4c0 1.6.6 2.7 2.2 2.7.9 0 1.6-.5 1.8-1.6h1.4c0 .4-.1 1-.6 1.6-.3.4-1.1 1-2.6 1-2.4 0-3.5-1.5-3.5-3.9 0-1.5.3-2.7 1.5-3.5.7-.5 1.6-.6 2.1-.6 3.4 0 3.3 3 3.3 4.2h-5.6m3.9-.8c0-.7-.1-2.2-1.9-2.2-.9 0-2 .6-2.1 2.2h4zM106.9 36.1h3.9c1.3 0 2.1.1 2.7.8.5.4.8 1.1.8 1.9 0 1.8-1.3 2.3-1.8 2.4.6.2 2.2.6 2.2 2.7 0 1.5-.9 2.2-1.3 2.5-.8.5-1.6.5-2.4.5h-4V36.1m1.4 4.6h2.1c.5 0 2.3 0 2.3-1.7 0-1.6-1.4-1.6-2.2-1.6h-2.2v3.3zm0 5h2.6c1.2 0 2.1-.6 2.1-1.9 0-1.1-.7-1.9-2.1-1.9h-2.6v3.8zM117.7 43.4c0 1.6.6 2.7 2.2 2.7.9 0 1.7-.5 1.8-1.6h1.4c0 .4-.1 1-.6 1.6-.3.4-1.1 1-2.6 1-2.4 0-3.5-1.5-3.5-3.9 0-1.5.3-2.7 1.5-3.5.7-.5 1.6-.6 2.1-.6 3.4 0 3.3 3 3.3 4.2h-5.6m4-.8c0-.7-.1-2.2-1.9-2.2-.9 0-2 .6-2.1 2.2h4zM125.2 36.1h1.4v10.8h-1.4zM130.7 47.5c.1.8.4 1.5 1.8 1.5 2 0 2-1.4 2-3.5-.6 1.2-2 1.3-2.5 1.3-.7 0-1.7-.1-2.3-.9-.6-.8-.9-1.8-.9-2.8 0-2.5 1.5-3.8 3.3-3.8 1.5 0 2.1.7 2.4 1.1v-1h1.4v6.1c0 1.8-.1 2.6-.4 3.1-.6 1.2-2.1 1.4-3.1 1.4-3 0-3.1-1.4-3.2-2.4h1.5M134 45c.3-.4.5-.8.5-2.2 0-.9-.2-1.5-.6-1.9-.4-.4-1-.7-1.6-.7-1.8 0-2 1.8-2 2.8 0 1.2.3 2.7 2.1 2.7.8.1 1.3-.2 1.6-.7M138.4 36.1h1.7v1.5h-1.7v-1.5zm.2 3.3h1.4V47h-1.4v-7.6zM149.3 39.4V49.8h-1.4v-3.7c-.1.2-.3.4-.6.6-.6.4-1.4.5-1.7.5-1.8 0-3.4-1.3-3.4-4.1s1.6-3.9 3.2-3.9c1.5 0 2.2.8 2.6 1.4v-1.2h1.3m-3.6.9c-2 0-2.1 2.1-2.1 2.7 0 .5.1 1.6.6 2.4.3.5.9.7 1.6.7 1.7 0 2.1-1.4 2.1-2.9 0-.5 0-2.9-2.2-2.9M153.2 39.4v4.8c0 .7.2 1.7 1.6 1.7.7 0 1.4-.2 1.8-.8.3-.4.3-1 .3-1.4v-4.3h1.5v7.5h-1.5v-1.3c-.3.5-.8 1.4-2.4 1.4-1.9 0-2.7-1.1-2.7-2.6v-5.1h1.4M161.9 43.4c0 1.6.6 2.7 2.2 2.7.9 0 1.6-.5 1.8-1.6h1.4c0 .4-.1 1-.6 1.6-.3.4-1.1 1-2.6 1-2.4 0-3.5-1.5-3.5-3.9 0-1.5.3-2.7 1.5-3.5.7-.5 1.6-.6 2.1-.6 3.4 0 3.3 3 3.3 4.2h-5.6m4-.8c0-.7-.1-2.2-1.9-2.2-.9 0-2 .6-2.1 2.2h4z"/></svg>