<svg xmlns="http://www.w3.org/2000/svg" version="1.1" id="layer" x="0" y="0" xml:space="preserve" width="599.8" height="79.8"><style type="text/css" id="style2">.st0{fill:#df271c}</style><g id="g42" transform="translate(-20.9 -281.8)"><path d="M127.9 335.1v-36.8h5.2l11.8 18.6c2.7 4.2 4.9 8.2 6.6 11.9h.1c-.4-4.9-.5-9.4-.5-15.1v-15.4h4.5v36.8h-4.8L139 316.4c-2.6-4.1-5-8.3-6.9-12.3l-.2.1c.3 4.6.4 9.1.4 15.2v15.7z" id="path4"/><path d="M174.3 335.7c-7.1 0-12.7-5.2-12.7-13.6 0-8.8 5.8-14 13.1-14 7.6 0 12.7 5.5 12.7 13.6.1 9.7-6.7 14-13.1 14zm.2-3.6c4.6 0 8-4.3 8-10.3 0-4.5-2.2-10.1-7.9-10.1s-8.1 5.2-8.1 10.3c0 5.7 3.3 10.1 8 10.1z" id="path6"/><path d="M193.6 316.9c0-3.1-.1-5.8-.2-8.2h4.2l.2 5.2h.2c1.2-3.5 4.1-5.8 7.3-5.8.5 0 .9.1 1.4.2v4.5c-.5-.1-1-.2-1.7-.2-3.4 0-5.8 2.6-6.4 6.2-.1.7-.2 1.4-.2 2.2v14.1h-4.8z" id="path8"/><path d="M213.3 308.7l3.5 13.4c.8 2.9 1.5 5.7 2 8.4h.2c.6-2.7 1.4-5.5 2.3-8.3l4.3-13.5h4l4.1 13.2c1 3.1 1.7 5.9 2.4 8.6h.2c.4-2.7 1.1-5.5 2-8.6l3.8-13.3h4.7l-8.5 26.4h-4.4l-4-12.6c-.9-2.9-1.7-5.6-2.3-8.7h-.1c-.7 3.2-1.5 5.9-2.4 8.7l-4.3 12.5h-4.4l-8-26.4h4.9z" id="path10"/><path d="M254.2 322.7c.1 6.5 4.3 9.2 9.1 9.2 3.4 0 5.5-.6 7.3-1.4l.8 3.4c-1.7.8-4.6 1.7-8.8 1.7-8.1 0-13-5.4-13-13.3 0-8 4.7-14.2 12.4-14.2 8.6 0 10.9 7.5 10.9 12.4 0 1-.1 1.7-.2 2.3zm14.1-3.5c.1-3-1.3-7.7-6.7-7.7-4.9 0-7 4.4-7.4 7.7z" id="path12"/><path d="M301.4 331.2c0 6.1-1.2 9.8-3.8 12.1-2.6 2.4-6.3 3.2-9.6 3.2-3.2 0-6.7-.8-8.8-2.2l1.2-3.7c1.7 1.1 4.5 2.1 7.7 2.1 4.9 0 8.5-2.6 8.5-9.2v-2.9h-.1c-1.5 2.5-4.3 4.4-8.4 4.4-6.5 0-11.2-5.6-11.2-12.9 0-8.9 5.8-14 11.9-14 4.6 0 7.1 2.4 8.2 4.6h.1l.2-4h4.2c-.1 1.9-.2 4-.2 7.3v15.2zm-4.8-12.1c0-.8-.1-1.5-.3-2.2-.9-2.8-3.2-5.1-6.7-5.1-4.6 0-7.9 3.9-7.9 10 0 5.2 2.6 9.5 7.8 9.5 2.9 0 5.6-1.9 6.7-4.9.3-.8.4-1.7.4-2.6z" id="path14"/><path d="M311.6 303.8c-1.7 0-3-1.4-3-3.1 0-1.7 1.3-3.1 3.1-3.1 1.9 0 3.1 1.4 3.1 3.1.1 1.7-1.1 3.1-3.2 3.1zm-2.3 4.9h4.8v26.4h-4.8z" id="path16"/><path d="M340.7 328.7c0 2.3.1 4.5.4 6.3h-4.4l-.4-3.3h-.2c-1.5 2.1-4.3 3.9-8.1 3.9-5.3 0-8.1-3.8-8.1-7.6 0-6.4 5.7-9.9 15.9-9.8v-.5c0-2.2-.6-6.1-6-6.1-2.5 0-5 .8-6.9 2l-1.1-3.2c2.2-1.4 5.3-2.3 8.7-2.3 8.1 0 10 5.5 10 10.8v9.8zm-4.7-7.1c-5.2-.1-11.2.8-11.2 5.9 0 3.1 2.1 4.6 4.5 4.6 3.4 0 5.7-2.2 6.4-4.4.2-.5.3-1 .3-1.5z" id="path18"/><path d="M348.4 315.8c0-2.7-.1-5-.2-7.1h4.3l.3 4.4h.1c1.3-2.5 4.4-5 8.7-5 3.7 0 9.3 2.2 9.3 11.2v15.8h-4.8v-15.2c0-4.3-1.6-7.9-6.1-7.9-3.2 0-5.6 2.3-6.4 5-.2.6-.3 1.4-.3 2.2v15.9h-4.8v-19.3z" id="path20"/><path d="M389.3 298.8c2.7-.4 6.7-.8 11.1-.8 5.5 0 9.3.8 11.9 2.9 2.2 1.7 3.4 4.3 3.4 7.7 0 4.7-3.3 7.9-6.5 9.1v.2c2.6 1 4 3.5 4.9 6.9 1.1 4.1 2.3 8.9 3 10.4h-8.5c-.6-1-1.5-4-2.6-8.6-1-4.6-2.6-5.9-5.9-5.9h-2.5v14.5h-8.2v-36.4zm8.2 15.8h3.3c4.1 0 6.6-2.1 6.6-5.3 0-3.4-2.3-5.1-6.1-5.1-2 0-3.2.2-3.8.3z" id="path22"/><path d="M427.8 324.3c.3 3.4 3.7 5.1 7.5 5.1 2.8 0 5.1-.4 7.4-1.1l1.1 5.6c-2.7 1.1-6.1 1.7-9.7 1.7-9.1 0-14.2-5.3-14.2-13.6 0-6.8 4.2-14.2 13.5-14.2 8.6 0 11.9 6.7 11.9 13.3 0 1.5-.2 2.7-.3 3.3zm9.7-5.7c0-2-.9-5.4-4.7-5.4-3.5 0-4.9 3.2-5.1 5.4z" id="path24"/><path d="M476.3 296.3v30.8c0 3 .1 6.2.2 8h-7.4l-.4-3.9h-.1c-1.7 3-4.9 4.5-8.3 4.5-6.3 0-11.4-5.4-11.4-13.7 0-9 5.6-14.2 11.9-14.2 3.3 0 5.8 1.1 7 3h.1v-14.5zm-8.3 23.4c0-.4-.1-1-.1-1.5-.5-2.2-2.3-4.1-4.9-4.1-3.8 0-5.7 3.4-5.7 7.6 0 4.5 2.2 7.4 5.7 7.4 2.4 0 4.3-1.6 4.8-4 .2-.6.2-1.2.2-1.9z" id="path26"/><path d="M521.2 334c-1.5.8-5 1.6-9.4 1.6-12.7 0-19.3-8-19.3-18.4 0-12.5 8.9-19.5 20.1-19.5 4.3 0 7.6.8 9.1 1.6l-1.7 6.6c-1.7-.7-4-1.4-7-1.4-6.6 0-11.7 4-11.7 12.2 0 7.4 4.4 12 11.8 12 2.5 0 5.3-.5 6.9-1.2z" id="path28"/><path d="M526.4 317.2c0-3.9-.1-6.5-.2-8.8h7.1l.3 4.9h.2c1.4-3.9 4.6-5.5 7.2-5.5.8 0 1.1 0 1.7.1v7.8c-.7-.1-1.4-.2-2.3-.2-3.1 0-5.1 1.6-5.7 4.2-.1.5-.2 1.2-.2 1.8V335h-8.3z" id="path30"/><path d="M559.4 335.7c-7.8 0-13.8-5.1-13.8-13.7s5.7-14.1 14.2-14.1c8.2 0 13.6 5.6 13.6 13.6.1 9.7-6.9 14.2-14 14.2zm.1-6c3.2 0 5.3-3.2 5.3-8 0-4-1.5-8-5.3-8-4 0-5.5 4.1-5.5 8 .1 4.6 2 8 5.5 8z" id="path32"/><path d="M578.5 327.8c1.5.9 4.7 2 7.1 2 2.5 0 3.5-.9 3.5-2.2 0-1.3-.8-2.1-3.9-3.1-5.5-1.9-7.6-4.9-7.6-8 0-5 4.2-8.7 10.9-8.7 3.1 0 5.9.7 7.5 1.5l-1.5 5.7c-1.2-.7-3.5-1.5-5.8-1.5-2 0-3.2.8-3.2 2.2 0 1.3 1 2 4.3 3.1 5.1 1.7 7.2 4.3 7.3 8.2 0 5-3.9 8.7-11.6 8.7-3.5 0-6.6-.8-8.6-1.9z" id="path34"/><path d="M602.1 327.8c1.5.9 4.7 2 7.1 2 2.5 0 3.5-.9 3.5-2.2 0-1.3-.8-2.1-3.9-3.1-5.5-1.9-7.6-4.9-7.6-8 0-5 4.2-8.7 10.9-8.7 3.1 0 5.9.7 7.5 1.5l-1.5 5.7c-1.2-.7-3.5-1.5-5.8-1.5-2 0-3.2.8-3.2 2.2 0 1.3 1 2 4.3 3.1 5.1 1.7 7.2 4.3 7.3 8.2 0 5-3.9 8.7-11.6 8.7-3.5 0-6.6-.8-8.6-1.9z" id="path36"/><path class="st0" id="rect38" fill="#df271c" d="M47.5 281.8h26.6v79.8H47.5z"/><path class="st0" id="rect40" fill="#df271c" d="M20.9 308.4h79.8V335H20.9z"/></g></svg>